<?xml version="1.0" encoding="UTF-8"?>
<svg id="_レイヤー_1" data-name="レイヤー 1" xmlns="http://www.w3.org/2000/svg" viewBox="0 0 1920 777.19">
  <defs>
    <style>
      .cls-1 {
        fill: #f15a24;
      }

      .cls-2 {
        fill: #f63;
      }

      .cls-3 {
        fill: #333;
      }
    </style>
  </defs>
  <rect class="cls-3" y="635.89" width="1405.54" height="49.63"/>
  <rect class="cls-3" y="727.57" width="968.97" height="49.63"/>
  <rect class="cls-2" x="1026.57" y="727.56" width="893.43" height="49.63" transform="translate(2946.57 1504.75) rotate(180)"/>
  <rect class="cls-1" x="1519.42" y="635.89" width="400.58" height="49.63" transform="translate(3439.42 1321.4) rotate(180)"/>
  <path class="cls-3" d="m287.53,316.27c-17.76-18.73-42.19-28.04-73.1-28.04-20.96,0-39,3.45-54.31,10.25-15.32,6.8-30.73,18.26-46.23,34.1V111.78L0,176.99v412.52h113.89v-141.51c0-26.83,4.32-45.37,12.87-55.71,8.64-10.34,19.83-15.56,33.64-15.56,12.5,0,22.18,3.82,29.13,11.46,6.86,7.73,10.34,20.78,10.34,39.31v162.01h114.45v-187.26c0-38.66-8.93-67.36-26.78-85.99Z"/>
  <path class="cls-3" d="m673.07,339.56c-30.35-34.28-75.36-51.33-134.84-51.33-52.06,0-93.4,14.53-124.03,43.69-30.54,29.16-45.86,66.14-45.86,111.14,0,48.26,18.04,87.29,54.31,117.11,29.41,24.04,68.03,36.05,115.86,36.05,53.56,0,95.47-14.44,125.82-43.41,30.26-28.97,45.48-66.14,45.48-111.42,0-40.34-12.21-74.25-36.74-101.83Zm-93.59,161.73c-10.52,12.39-24.06,18.63-40.41,18.63s-29.79-6.33-40.5-18.91c-10.71-12.58-16.07-31.95-16.07-58.23s5.45-45.18,16.26-57.85c10.81-12.67,24.52-19.01,41.16-19.01,15.6,0,28.75,6.24,39.47,18.73,10.62,12.48,15.88,31.49,15.88,57.02,0,27.39-5.26,47.23-15.79,59.62Z"/>
  <path class="cls-3" d="m960.52,509.11c-15.13,4.75-26.88,7.17-35.24,7.17-9.3,0-15.88-3.17-19.55-9.41-2.44-4.1-3.66-12.39-3.66-24.87v-104.44h62.67v-82.73h-62.67v-109.93l-114.17,65.4v44.53h-42v82.73h42v103.6c0,32.89,3.2,56.74,9.58,71.36,6.48,14.72,16.44,25.71,29.88,32.89,13.44,7.17,34.3,10.81,62.68,10.81,24.43,0,50.74-3.07,78.93-9.13l-8.46-77.98Z"/>
  <path class="cls-3" d="m1153.43,489.36V104.14l-126.85,72.57v412.8h324.65v-100.15h-197.8Z"/>
  <path class="cls-3" d="m1405.54,322.51v267h113.89v-332.22l-113.89,65.21Z"/>
  <path class="cls-3" d="m1884.39,326.89c-23.68-25.81-53.56-38.66-89.83-38.66-17.48,0-33.55,2.98-48.02,8.85-14.38,5.96-27.34,14.81-38.71,26.64V106.93l-115.01,65.87v416.71h106.65v-43.51c14.66,18.26,28.28,30.74,40.78,37.45,16.63,8.48,34.95,12.76,54.88,12.76,23.3,0,44.54-6.06,63.71-18.17,19.07-12.11,34.11-30.46,44.91-54.97,10.81-24.5,16.26-52.82,16.26-85.06,0-48.26-11.84-85.34-35.61-111.14Zm-92.18,169.84c-9.21,11.18-20.67,16.77-34.3,16.77-14.75,0-26.87-5.68-36.55-17.05-9.58-11.37-14.38-29.72-14.38-55.06,0-23.1,4.89-40.43,14.66-51.8,9.87-11.37,22.46-17.05,37.96-17.05,12.87,0,23.87,5.5,32.89,16.4,9.02,10.9,13.53,28.04,13.53,51.33,0,26.46-4.6,45.28-13.81,56.46Z"/>
  <polygon class="cls-1" points=".25 0 113.9 65.05 .25 130.1 .25 0"/>
  <polygon class="cls-3" points="1405.66 145.66 1519.3 210.72 1405.66 275.77 1405.66 145.66"/>
</svg>